<?xml version="1.0" encoding="UTF-8" standalone="no"?>
<svg
   xmlns:dc="http://purl.org/dc/elements/1.1/"
   xmlns:cc="http://creativecommons.org/ns#"
   xmlns:rdf="http://www.w3.org/1999/02/22-rdf-syntax-ns#"
   xmlns:svg="http://www.w3.org/2000/svg"
   xmlns="http://www.w3.org/2000/svg"
   width="159.69142"
   height="186.43748"
   id="svg5822"
   version="1.1">
  <defs
     id="defs5824" />
  <metadata
     id="metadata5827">
    <rdf:RDF>
      <cc:Work
         rdf:about="">
        <dc:format>image/svg+xml</dc:format>
        <dc:type
           rdf:resource="http://purl.org/dc/dcmitype/StillImage" />
        <dc:title></dc:title>
      </cc:Work>
    </rdf:RDF>
  </metadata>
  <g
     transform="translate(341.70286,-177.56136)"
     id="g2147">
    <path
       style="fill:none;stroke:#c0c0c0;stroke-width:1.75;stroke-linecap:butt;stroke-linejoin:miter;stroke-miterlimit:4;stroke-dasharray:none;stroke-opacity:1"
       d="m -331.07578,329.12901 44.2641,-25.01443 71.348,0.35287 28.19862,24.80215"
       id="path1511" />
    <path
       id="path6883-1-1-3-3-0"
       style="fill:#c0c0c0;fill-opacity:1;fill-rule:evenodd;stroke:none;stroke-width:0.75;marker-start:none;marker-end:none"
       d="m -256.60114,327.15583 c 1.22237,1.49614 1.00016,3.70247 -0.49599,4.92483 -1.49614,1.22236 -3.70248,1.00016 -4.92484,-0.49599 -1.22236,-1.49615 -1.00016,-3.70247 0.49599,-4.92483 1.49615,-1.22236 3.70248,-1.00016 4.92484,0.49599 z" />
    <path
       style="fill:none;stroke:#c0c0c0;stroke-width:1.75;stroke-linecap:butt;stroke-linejoin:miter;stroke-miterlimit:4;stroke-dasharray:none;stroke-opacity:1"
       d="m -303.07177,353.92594 87.60809,-49.45849"
       id="path4676-5-7" />
    <path
       style="fill:none;stroke:#c0c0c0;stroke-width:1.75;stroke-linecap:butt;stroke-linejoin:miter;stroke-miterlimit:4;stroke-dasharray:none;stroke-opacity:1"
       d="m -286.81168,304.11458 55.30558,50.3892"
       id="path904" />
    <path
       id="path902"
       d="m -330.92215,329.26948 h 143.65709"
       style="fill:none;stroke:#c0c0c0;stroke-width:1.75;stroke-linecap:butt;stroke-linejoin:miter;stroke-miterlimit:4;stroke-dasharray:none;stroke-opacity:1" />
    <rect
       style="fill:#000000;fill-opacity:0;fill-rule:evenodd;stroke:#c0c0c0;stroke-width:1.75;stroke-linejoin:round;stroke-miterlimit:4;stroke-dasharray:none;stroke-opacity:1"
       id="rect3970-3-5-8-1-6-6-9-2-5-9"
       width="71.870331"
       height="116.92113"
       x="-287.10526"
       y="187.1553" />
    <path
       style="fill:none;stroke:#000000;stroke-width:1.75;stroke-linecap:butt;stroke-linejoin:miter;stroke-miterlimit:4;stroke-dasharray:none;stroke-opacity:1"
       d="m -286.81168,187.22282 -44.11047,25.1549 27.65845,25.15489 72.00738,0.11922 43.99126,-25.27411 -27.77768,-25.27411 z"
       id="path4494-5-4-8" />
    <path
       id="path3611-42-3-4-8"
       style="fill:#000000;fill-opacity:1;fill-rule:evenodd;stroke:none;stroke-width:0.75;marker-start:none;marker-end:none"
       d="m -288.83488,190.22993 c -1.63194,-1.03411 -2.11714,-3.19786 -1.08303,-4.82981 1.03411,-1.63194 3.19786,-2.11714 4.82982,-1.08303 1.63194,1.03411 2.11714,3.19787 1.08303,4.82981 -1.03411,1.63194 -3.19788,2.11714 -4.82982,1.08303 z" />
    <path
       id="path6883-1-1-7-4"
       style="fill:#c0c0c0;fill-opacity:1;fill-rule:evenodd;stroke:none;stroke-width:0.75;marker-start:none;marker-end:none"
       d="m -284.29873,301.83266 c 1.22237,1.49614 1.00016,3.70247 -0.49599,4.92483 -1.49614,1.22236 -3.70248,1.00016 -4.92484,-0.49599 -1.22236,-1.49615 -1.00016,-3.70247 0.49599,-4.92483 1.49615,-1.22236 3.70248,-1.00016 4.92484,0.49599 z" />
    <path
       id="path3611-42-3-5-7-4"
       style="fill:#000000;fill-opacity:1;fill-rule:evenodd;stroke:none;stroke-width:0.75;marker-start:none;marker-end:none"
       d="m -217.08242,190.22993 c -1.63194,-1.03411 -2.11714,-3.19786 -1.08303,-4.82981 1.03411,-1.63194 3.19786,-2.11714 4.82982,-1.08303 1.63194,1.03411 2.11714,3.19787 1.08303,4.82981 -1.03411,1.63194 -3.19788,2.11714 -4.82982,1.08303 z" />
    <path
       id="path6883-1-1-8-7-3"
       style="fill:#c0c0c0;fill-opacity:1;fill-rule:evenodd;stroke:none;stroke-width:0.75;marker-start:none;marker-end:none"
       d="m -212.54627,301.83266 c 1.22237,1.49614 1.00016,3.70247 -0.49599,4.92483 -1.49614,1.22236 -3.70248,1.00016 -4.92484,-0.49599 -1.22236,-1.49615 -1.00016,-3.70247 0.49599,-4.92483 1.49615,-1.22236 3.70248,-1.00016 4.92484,0.49599 z" />
    <path
       id="path3611-5-4-5-8-9"
       style="fill:#000000;fill-opacity:1;fill-rule:evenodd;stroke:none;stroke-width:0.75;marker-start:none;marker-end:none"
       d="m -233.49388,240.46955 c -1.63195,-1.03411 -2.11715,-3.19786 -1.08303,-4.82981 1.03411,-1.63194 3.19786,-2.11714 4.82981,-1.08303 1.63194,1.03411 2.11714,3.19787 1.08303,4.82981 -1.03411,1.63194 -3.19787,2.11714 -4.82981,1.08303 z" />
    <path
       id="path3611-27-3-0-1-8"
       style="fill:#000000;fill-opacity:1;fill-rule:evenodd;stroke:none;stroke-width:0.75;marker-start:none;marker-end:none"
       d="m -332.91476,215.55309 c -1.63194,-1.03411 -2.11715,-3.19786 -1.08303,-4.82981 1.03411,-1.63194 3.19786,-2.11714 4.82981,-1.08303 1.63194,1.03411 2.11714,3.19787 1.08303,4.82981 -1.03411,1.63194 -3.19787,2.11714 -4.82981,1.08303 z" />
    <path
       id="path3611-1-2-0-2-8"
       style="fill:#000000;fill-opacity:1;fill-rule:evenodd;stroke:none;stroke-width:0.75;marker-start:none;marker-end:none"
       d="m -233.54154,357.24313 c -1.63195,-1.03411 -2.11715,-3.19786 -1.08304,-4.82981 1.03412,-1.63194 3.19787,-2.11714 4.82982,-1.08303 1.63194,1.03411 2.11714,3.19787 1.08303,4.82981 -1.03411,1.63194 -3.19787,2.11714 -4.82981,1.08303 z" />
    <path
       id="path3611-42-3-5-6-0-0"
       style="fill:#000000;fill-opacity:1;fill-rule:evenodd;stroke:none;stroke-width:0.75;marker-start:none;marker-end:none"
       d="m -189.38484,215.55309 c -1.63194,-1.03411 -2.11714,-3.19786 -1.08303,-4.82981 1.03411,-1.63194 3.19786,-2.11714 4.82982,-1.08303 1.63194,1.03411 2.11714,3.19787 1.08303,4.82981 -1.03411,1.63194 -3.19788,2.11714 -4.82982,1.08303 z" />
    <path
       id="path6883-1-1-8-0-9-8"
       style="fill:#000000;fill-opacity:1;fill-rule:evenodd;stroke:none;stroke-width:0.75;marker-start:none;marker-end:none"
       d="m -184.84869,327.15583 c 1.22237,1.49614 1.00016,3.70247 -0.49599,4.92483 -1.49614,1.22236 -3.70248,1.00016 -4.92484,-0.49599 -1.22236,-1.49615 -1.00016,-3.70247 0.49599,-4.92483 1.49615,-1.22236 3.70248,-1.00016 4.92484,0.49599 z" />
    <path
       style="fill:none;stroke:#000000;stroke-width:1.75;stroke-linecap:butt;stroke-linejoin:miter;stroke-miterlimit:4;stroke-dasharray:none;stroke-opacity:1"
       d="m -303.07048,237.38954 87.36709,-49.9328"
       id="path4676-7" />
    <path
       id="path3611-3-3-6-6-3"
       style="fill:#000000;fill-opacity:1;fill-rule:evenodd;stroke:none;stroke-width:0.75;marker-start:none;marker-end:none"
       d="m -332.96241,332.32667 c -1.63194,-1.03411 -2.11715,-3.19786 -1.08303,-4.82981 1.03411,-1.63194 3.19786,-2.11714 4.82981,-1.08303 1.63193,1.03411 2.11713,3.19787 1.08302,4.82981 -1.0341,1.63194 -3.19786,2.11714 -4.8298,1.08303 z" />
    <path
       id="path3611-2-4-1-0-8"
       style="fill:#000000;fill-opacity:1;fill-rule:evenodd;stroke:none;stroke-width:0.75;marker-start:none;marker-end:none"
       d="m -305.24507,357.24313 c -1.63194,-1.03411 -2.11714,-3.19786 -1.08303,-4.82981 1.03411,-1.63194 3.19786,-2.11714 4.82981,-1.08303 1.63194,1.03411 2.11714,3.19787 1.08303,4.82981 -1.03411,1.63194 -3.19787,2.11714 -4.82981,1.08303 z" />
    <path
       id="path3611-6-1-9-8-3"
       style="fill:#000000;fill-opacity:1;fill-rule:evenodd;stroke:none;stroke-width:0.75;marker-start:none;marker-end:none"
       d="m -305.19742,240.46955 c -1.63194,-1.03411 -2.11714,-3.19786 -1.08303,-4.82981 1.03411,-1.63194 3.19786,-2.11714 4.82981,-1.08303 1.63194,1.03411 2.11714,3.19787 1.08303,4.82981 -1.03411,1.63194 -3.19787,2.11714 -4.82981,1.08303 z" />
    <rect
       style="fill:#000000;fill-opacity:0;fill-rule:evenodd;stroke:#000000;stroke-width:1.75;stroke-linejoin:round;stroke-miterlimit:4;stroke-dasharray:none;stroke-opacity:1"
       id="rect3970-1-2-7-9-2-4-9-9-8-9-1"
       width="71.870331"
       height="116.92113"
       x="-303.37643"
       y="237.58266" />
    <path
       id="path3611-42-3-0-6-7"
       style="fill:#000000;fill-opacity:1;fill-rule:evenodd;stroke:none;stroke-width:0.75;marker-start:none;marker-end:none"
       d="m -261.13729,215.55309 c -1.63194,-1.03411 -2.11714,-3.19786 -1.08303,-4.82981 1.03411,-1.63194 3.19786,-2.11714 4.82982,-1.08303 1.63194,1.03411 2.11714,3.19787 1.08303,4.82981 -1.03411,1.63194 -3.19788,2.11714 -4.82982,1.08303 z" />
    <path
       style="font-style:normal;font-weight:normal;font-size:16.6307106px;font-family:'Bitstream Vera Sans';fill:#000000;fill-opacity:1;stroke:none"
       d="m -334.95494,273.1733 c -0.0139,-0.5276 -0.0574,-0.90943 -0.13017,-1.14547 -0.0729,-0.23602 -0.19093,-0.41306 -0.35405,-0.53109 -0.16316,-0.11798 -0.39399,-0.17701 -0.6925,-0.17703 -0.70119,2e-5 -1.33119,0.27944 -1.89005,0.83829 -0.55886,0.55885 -1.01532,1.35029 -1.36937,2.37429 -0.35406,1.02398 -0.53109,2.00804 -0.53109,2.95221 0,0.70811 0.13885,1.23398 0.41654,1.57763 0.27769,0.34364 0.69423,0.51547 1.24962,0.51547 0.63174,0 1.17845,-0.11979 1.64011,-0.35928 0.46167,-0.23949 0.94935,-0.61611 1.46309,-1.12985 l 0.63523,0.63521 c -0.65259,0.72201 -1.31036,1.24963 -1.97335,1.58286 -0.663,0.33323 -1.37631,0.49986 -2.13997,0.49986 -1.00664,0 -1.77028,-0.29854 -2.29095,-0.89557 -0.52067,-0.59704 -0.78102,-1.46483 -0.78101,-2.60337 -1e-5,-0.74283 0.13885,-1.55854 0.41653,-2.44716 0.27769,-0.8886 0.68382,-1.66963 1.21838,-2.34304 0.53455,-0.67339 1.15937,-1.17671 1.87442,-1.50994 0.71505,-0.33323 1.47871,-0.49985 2.29096,-0.49985 0.92331,0 1.77376,0.10419 2.55129,0.3124 l -0.51025,2.35343 z"
       id="text6159-1-0" />
    <path
       d="m -320.87205,343.42999 0.97064,-0.69633 0.67523,0.16881 -1.55092,6.68899 c -0.15475,0.6682 -0.23212,1.18868 -0.23211,1.56147 -1e-5,0.28134 0.0457,0.48532 0.13716,0.61192 0.0914,0.12661 0.23561,0.18991 0.43256,0.18991 0.211,0 0.43608,-0.0862 0.67523,-0.25849 0.23914,-0.17232 0.57675,-0.50114 1.01285,-0.98646 l 0.60137,0.59082 c -0.63303,0.67523 -1.17287,1.15528 -1.61949,1.44014 -0.44665,0.28486 -0.93021,0.42729 -1.45069,0.42729 -0.43609,0 -0.78426,-0.14419 -1.04449,-0.43257 -0.26026,-0.28837 -0.39038,-0.67171 -0.39037,-1.15 -10e-6,-0.38684 0.0809,-0.79831 0.24266,-1.2344 l -0.13716,-0.0422 c -0.67523,0.98471 -1.31529,1.70566 -1.92018,2.16284 -0.6049,0.45719 -1.24496,0.68578 -1.92018,0.68578 -0.77371,0 -1.37332,-0.29189 -1.79886,-0.87569 -0.42553,-0.58379 -0.6383,-1.4032 -0.6383,-2.45825 0,-1.20978 0.23738,-2.37209 0.71216,-3.48693 0.47476,-1.11482 1.12713,-1.99403 1.95711,-2.63761 0.82996,-0.64357 1.75488,-0.96536 2.77477,-0.96537 0.45718,1e-5 0.88447,0.051 1.28188,0.15298 0.39739,0.102 0.8071,0.28311 1.22913,0.54335 z m -0.92844,3.14404 c 0.0633,-0.28838 0.10549,-0.53807 0.1266,-0.74909 0.0211,-0.211 0.0316,-0.43959 0.0317,-0.68578 -10e-6,-0.54158 -0.11606,-0.93898 -0.34816,-1.1922 -0.23212,-0.2532 -0.626,-0.37981 -1.18165,-0.37981 -0.72448,0 -1.37509,0.2919 -1.95184,0.87568 -0.57676,0.5838 -1.02691,1.36629 -1.35046,2.34748 -0.32355,0.9812 -0.48532,1.96063 -0.48532,2.9383 0,0.7315 0.10023,1.27837 0.30069,1.6406 0.20045,0.36223 0.53631,0.54335 1.00757,0.54335 0.46421,0 0.91964,-0.20046 1.36628,-0.60138 0.44663,-0.40091 0.90734,-0.9724 1.38211,-1.71445 0.47477,-0.74204 0.81062,-1.59839 1.00757,-2.56903 l 0.095,-0.45367 z"
       style="font-style:normal;font-weight:normal;font-size:21.6072998px;font-family:'Bitstream Vera Sans';fill:#000000;fill-opacity:1;stroke:none"
       id="text3671-3" />
    <text
       xml:space="preserve"
       style="font-style:normal;font-weight:normal;line-height:0%;font-family:sans-serif;letter-spacing:0px;word-spacing:0px;fill:#000000;fill-opacity:1;stroke:none"
       x="-268.77371"
       y="186.18213"
       id="text6506"><tspan
         style="font-size:40px;line-height:1.25;font-family:sans-serif"
         id="tspan6508"
         x="-268.77371"
         y="186.18213"> </tspan></text>
    <path
       id="path906"
       d="m -331.28242,212.4927 144.01736,-0.11498"
       style="fill:none;stroke:#000000;stroke-width:1.75;stroke-linecap:butt;stroke-linejoin:miter;stroke-miterlimit:4;stroke-dasharray:none;stroke-opacity:1" />
    <path
       style="fill:none;stroke:#000000;stroke-width:1.75;stroke-linecap:butt;stroke-linejoin:miter;stroke-miterlimit:4;stroke-dasharray:none;stroke-opacity:1"
       d="m -286.81168,187.22282 55.18327,50.43601"
       id="path908" />
    <path
       style="fill:none;stroke:#000000;stroke-width:1.75;stroke-linecap:butt;stroke-linejoin:miter;stroke-miterlimit:4;stroke-dasharray:none;stroke-opacity:1"
       d="m -331.07578,329.12901 27.77299,25.37589 71.79669,-0.001 44.24104,-25.2343"
       id="path1509" />
    <path
       style="fill:none;stroke:#000000;stroke-width:1.75;stroke-linecap:butt;stroke-linejoin:miter;stroke-miterlimit:4;stroke-dasharray:none;stroke-opacity:1"
       d="m -187.45115,212.32158 0.18609,116.94802"
       id="path1513" />
    <path
       style="fill:none;stroke:#000000;stroke-width:1.75;stroke-linecap:butt;stroke-linejoin:miter;stroke-miterlimit:4;stroke-dasharray:none;stroke-opacity:1"
       d="M -330.92215,212.37772 V 329.26948"
       id="path2114" />
  </g>
</svg>
